<svg width="376" height="169" viewBox="0 0 376 169" fill="none" xmlns="http://www.w3.org/2000/svg">
<path d="M1.25 95.2422C1.25 95.2422 0.0672607 129.126 49.75 155.742C91.75 178.242 139.25 162.242 139.25 162.242" stroke="#6B7EFD" stroke-width="2" stroke-linecap="round" stroke-dasharray="4 4"/>
<path d="M198.75 99.1475C198.75 93.1842 205.75 59.1843 235.75 48.1475C265.75 37.1106 297.75 48.1475 297.75 48.1475" stroke="#6B7EFD" stroke-width="2" stroke-linecap="round" stroke-dasharray="4 4"/>
<mask id="mask0_30_6633" style="mask-type:alpha" maskUnits="userSpaceOnUse" x="146" y="107" width="53" height="53">
<rect x="146.75" y="107.242" width="52" height="52" fill="#D9D9D9"/>
</mask>
<g mask="url(#mask0_30_6633)">
<path d="M171.667 123.24C170.475 123.24 169.383 122.947 168.391 122.362C167.397 121.779 166.611 121.009 166.033 120.053C165.636 119.345 165.6 118.637 165.925 117.929C166.25 117.221 166.864 116.867 167.767 116.867C168.128 116.867 168.489 116.973 168.85 117.186C169.211 117.398 169.59 117.752 169.988 118.248C170.168 118.496 170.412 118.682 170.718 118.806C171.025 118.93 171.342 118.991 171.667 118.991C172.281 118.991 172.796 118.787 173.212 118.379C173.626 117.973 173.833 117.469 173.833 116.867C173.833 116.265 173.626 115.761 173.212 115.355C172.796 114.947 172.281 114.743 171.667 114.743H153.25C152.636 114.743 152.122 114.539 151.707 114.131C151.291 113.725 151.083 113.22 151.083 112.619C151.083 112.017 151.291 111.512 151.707 111.104C152.122 110.698 152.636 110.494 153.25 110.494H171.667C173.472 110.494 175.007 111.114 176.271 112.353C177.535 113.592 178.167 115.097 178.167 116.867C178.167 118.637 177.535 120.142 176.271 121.381C175.007 122.62 173.472 123.24 171.667 123.24ZM153.25 101.997C152.636 101.997 152.122 101.794 151.707 101.386C151.291 100.979 151.083 100.475 151.083 99.8732C151.083 99.2714 151.291 98.7665 151.707 98.3587C152.122 97.9522 152.636 97.749 153.25 97.749H180.333C181.272 97.749 182.049 97.4481 182.663 96.8462C183.277 96.2444 183.583 95.4832 183.583 94.5627C183.583 93.6422 183.277 92.881 182.663 92.2792C182.049 91.6773 181.272 91.3764 180.333 91.3764C179.72 91.3764 179.169 91.5095 178.682 91.7757C178.194 92.0405 177.806 92.4208 177.517 92.9164C177.228 93.4475 176.885 93.8546 176.488 94.1379C176.09 94.4211 175.693 94.5627 175.296 94.5627C174.538 94.5627 173.942 94.2972 173.508 93.7661C173.075 93.2351 172.967 92.6686 173.183 92.0667C173.689 90.5798 174.583 89.3846 175.866 88.4811C177.147 87.579 178.636 87.1279 180.333 87.1279C182.464 87.1279 184.261 87.8445 185.724 89.2776C187.186 90.7122 187.917 92.4739 187.917 94.5627C187.917 96.6515 187.186 98.4125 185.724 99.8456C184.261 101.28 182.464 101.997 180.333 101.997H153.25ZM189.975 118.354C189.217 118.673 188.503 118.646 187.834 118.275C187.167 117.903 186.833 117.292 186.833 116.442C186.833 116.053 186.978 115.672 187.267 115.299C187.556 114.928 187.971 114.601 188.513 114.318C189.018 114.035 189.406 113.654 189.676 113.175C189.948 112.698 190.083 112.158 190.083 111.556C190.083 110.636 189.777 109.875 189.163 109.273C188.549 108.671 187.772 108.37 186.833 108.37H153.25C152.636 108.37 152.122 108.166 151.707 107.758C151.291 107.352 151.083 106.848 151.083 106.246C151.083 105.644 151.291 105.139 151.707 104.731C152.122 104.325 152.636 104.122 153.25 104.122H186.833C188.964 104.122 190.761 104.838 192.224 106.271C193.686 107.706 194.417 109.468 194.417 111.556C194.417 113.079 194.011 114.442 193.199 115.646C192.386 116.849 191.311 117.752 189.975 118.354Z" fill="#6B7EFD"/>
</g>
<mask id="mask1_30_6633" style="mask-type:alpha" maskUnits="userSpaceOnUse" x="323" y="0" width="53" height="53">
<rect x="323.75" y="0.242188" width="52" height="52" fill="#D9D9D9"/>
</mask>
<g mask="url(#mask1_30_6633)">
<path d="M326.54 11.3263C326.955 11.7512 327.469 11.9636 328.083 11.9636C328.697 11.9636 329.212 11.7597 329.628 11.3518C330.043 10.9454 330.286 10.4412 330.358 9.83937C330.9 5.02447 333.004 0.988453 336.67 -2.26868C340.334 -5.52582 344.694 -7.15439 349.75 -7.15439C354.805 -7.15439 359.166 -5.52582 362.832 -2.26868C366.497 0.988453 368.6 5.02447 369.141 9.83937C369.214 10.4412 369.466 10.9454 369.9 11.3518C370.333 11.7597 370.839 11.9636 371.416 11.9636C372.03 11.9636 372.545 11.7512 372.959 11.3263C373.375 10.9015 373.547 10.4058 373.475 9.83937C373.222 6.86546 372.419 4.08627 371.065 1.50181C369.711 -1.08266 367.977 -3.3308 365.865 -5.24259C363.752 -7.15439 361.314 -8.65905 358.551 -9.75656C355.789 -10.8541 352.855 -11.4028 349.75 -11.4028C346.644 -11.4028 343.711 -10.8541 340.949 -9.75656C338.186 -8.65905 335.747 -7.15439 333.634 -5.24259C331.522 -3.3308 329.798 -1.08266 328.462 1.50181C327.126 4.08627 326.314 6.86546 326.025 9.83937C325.953 10.4058 326.124 10.9015 326.54 11.3263Z" fill="#F9705A"/>
<path d="M336.75 11.9633C336.136 11.9633 335.63 11.7509 335.233 11.326C334.836 10.9012 334.673 10.4055 334.746 9.83907C335.251 6.2279 336.922 3.20088 339.757 0.75803C342.591 -1.68482 345.922 -2.90625 349.75 -2.90625C353.578 -2.90625 356.909 -1.68482 359.745 0.75803C362.579 3.20088 364.248 6.2279 364.754 9.83907C364.826 10.4055 364.664 10.9012 364.267 11.326C363.869 11.7509 363.364 11.9633 362.75 11.9633C362.172 11.9633 361.667 11.7686 361.233 11.3791C360.8 10.9897 360.511 10.494 360.367 9.89217C359.861 7.44932 358.625 5.41361 356.657 3.78504C354.688 2.15647 352.386 1.34219 349.75 1.34219C347.114 1.34219 344.811 2.15647 342.843 3.78504C340.875 5.41361 339.639 7.44932 339.133 9.89217C338.989 10.494 338.7 10.9897 338.267 11.3791C337.833 11.7686 337.328 11.9633 336.75 11.9633Z" fill="#FFCE1A"/>
</g>
</svg>
