<svg width="343" height="213" viewBox="0 0 343 213" fill="none" xmlns="http://www.w3.org/2000/svg">
<path d="M203.752 139.242C203.752 139.242 202.57 173.126 252.252 199.742C294.252 222.242 341.752 206.242 341.752 206.242" stroke="#6B7EFD" stroke-width="2" stroke-linecap="round" stroke-dasharray="4 4"/>
<path d="M182.75 63.2422C182.75 57.2688 175.609 23.2113 145.003 12.1558C114.396 1.10024 81.75 12.1558 81.75 12.1558" stroke="#6B7EFD" stroke-width="2" stroke-linecap="round" stroke-dasharray="4 4"/>
<mask id="mask0_30_6648" style="mask-type:alpha" maskUnits="userSpaceOnUse" x="0" y="0" width="53" height="53">
<rect x="0.75" y="0.242188" width="52" height="52" fill="#D9D9D9"/>
</mask>
<g mask="url(#mask0_30_6648)">
<path d="M26.7498 -14.0368C26.136 -14.0368 25.6217 -14.2407 25.2072 -14.6486C24.7912 -15.055 24.5832 -15.5592 24.5832 -16.161V-20.4095C24.5832 -21.0113 24.7912 -21.5162 25.2072 -21.924C25.6217 -22.3305 26.136 -22.5337 26.7498 -22.5337C27.3637 -22.5337 27.8787 -22.3305 28.2947 -21.924C28.7092 -21.5162 28.9165 -21.0113 28.9165 -20.4095V-16.161C28.9165 -15.5592 28.7092 -15.055 28.2947 -14.6486C27.8787 -14.2407 27.3637 -14.0368 26.7498 -14.0368ZM37.4748 -9.68216C37.0776 -10.0716 36.879 -10.5588 36.879 -11.1436C36.879 -11.7271 37.0776 -12.2312 37.4748 -12.6561L40.5082 -15.6831C40.9415 -16.1079 41.4557 -16.3203 42.0508 -16.3203C42.6474 -16.3203 43.1623 -16.1079 43.5957 -15.6831C43.9929 -15.2936 44.1915 -14.798 44.1915 -14.1961C44.1915 -13.5943 43.9929 -13.0986 43.5957 -12.7092L40.5082 -9.68216C40.111 -9.29272 39.6054 -9.098 38.9915 -9.098C38.3776 -9.098 37.8721 -9.29272 37.4748 -9.68216ZM44.0832 2.95695C43.4693 2.95695 42.9551 2.75303 42.5405 2.34517C42.1245 1.93874 41.9165 1.43459 41.9165 0.832729C41.9165 0.230867 42.1245 -0.273989 42.5405 -0.681839C42.9551 -1.08827 43.4693 -1.29149 44.0832 -1.29149H48.4165C49.0304 -1.29149 49.5446 -1.08827 49.9592 -0.681839C50.3752 -0.273989 50.5832 0.230867 50.5832 0.832729C50.5832 1.43459 50.3752 1.93874 49.9592 2.34517C49.5446 2.75303 49.0304 2.95695 48.4165 2.95695H44.0832ZM26.7498 24.1992C26.136 24.1992 25.6217 23.9952 25.2072 23.5874C24.7912 23.1809 24.5832 22.6768 24.5832 22.0749V17.8265C24.5832 17.2246 24.7912 16.7205 25.2072 16.314C25.6217 15.9062 26.136 15.7023 26.7498 15.7023C27.3637 15.7023 27.8787 15.9062 28.2947 16.314C28.7092 16.7205 28.9165 17.2246 28.9165 17.8265V22.0749C28.9165 22.6768 28.7092 23.1809 28.2947 23.5874C27.8787 23.9952 27.3637 24.1992 26.7498 24.1992ZM12.9915 -9.68216L9.904 -12.6561C9.47067 -13.0809 9.254 -13.5943 9.254 -14.1961C9.254 -14.798 9.47067 -15.2936 9.904 -15.6831C10.3012 -16.0725 10.8068 -16.2672 11.4207 -16.2672C12.0346 -16.2672 12.5401 -16.0725 12.9373 -15.6831L16.0248 -12.6561C16.4221 -12.2666 16.6207 -11.771 16.6207 -11.1691C16.6207 -10.5673 16.4221 -10.0716 16.0248 -9.68216C15.5915 -9.29272 15.0859 -9.098 14.5082 -9.098C13.9304 -9.098 13.4248 -9.29272 12.9915 -9.68216ZM40.5082 17.3485L37.4748 14.3215C37.0776 13.8967 36.879 13.3925 36.879 12.8091C36.879 12.2242 37.0776 11.7371 37.4748 11.3476C37.8721 10.9582 38.3689 10.7635 38.9655 10.7635C39.5606 10.7635 40.0748 10.9582 40.5082 11.3476L43.5957 14.3215C44.029 14.711 44.2363 15.2066 44.2175 15.8085C44.2002 16.4103 43.9929 16.9237 43.5957 17.3485C43.1623 17.7734 42.6387 17.9858 42.0248 17.9858C41.4109 17.9858 40.9054 17.7734 40.5082 17.3485ZM5.08317 2.95695C4.46928 2.95695 3.95506 2.75303 3.5405 2.34517C3.1245 1.93874 2.9165 1.43459 2.9165 0.832729C2.9165 0.230867 3.1245 -0.273989 3.5405 -0.681839C3.95506 -1.08827 4.46928 -1.29149 5.08317 -1.29149H9.4165C10.0304 -1.29149 10.5453 -1.08827 10.9613 -0.681839C11.3759 -0.273989 11.5832 0.230867 11.5832 0.832729C11.5832 1.43459 11.3759 1.93874 10.9613 2.34517C10.5453 2.75303 10.0304 2.95695 9.4165 2.95695H5.08317ZM9.904 17.3485C9.50678 16.9591 9.30817 16.4635 9.30817 15.8616C9.30817 15.2597 9.50678 14.7641 9.904 14.3746L12.9915 11.3476C13.3887 10.9582 13.8856 10.7635 14.4822 10.7635C15.0773 10.7635 15.5915 10.9582 16.0248 11.3476C16.4582 11.7725 16.6748 12.2773 16.6748 12.8622C16.6748 13.4456 16.4582 13.9498 16.0248 14.3746L12.9915 17.3485C12.5582 17.7734 12.0346 17.9858 11.4207 17.9858C10.8068 17.9858 10.3012 17.7734 9.904 17.3485ZM26.7498 13.5781C23.1387 13.5781 20.0693 12.3389 17.5415 9.86066C15.0137 7.38241 13.7498 4.3731 13.7498 0.832729C13.7498 -2.70764 15.0137 -5.71695 17.5415 -8.19521C20.0693 -10.6735 23.1387 -11.9126 26.7498 -11.9126C30.3609 -11.9126 33.4304 -10.6735 35.9582 -8.19521C38.486 -5.71695 39.7498 -2.70764 39.7498 0.832729C39.7498 4.3731 38.486 7.38241 35.9582 9.86066C33.4304 12.3389 30.3609 13.5781 26.7498 13.5781Z" fill="#FFCE1A"/>
</g>
<mask id="mask1_30_6648" style="mask-type:alpha" maskUnits="userSpaceOnUse" x="173" y="73" width="53" height="53">
<rect x="173.75" y="73.2422" width="52" height="52" fill="#D9D9D9"/>
</mask>
<g mask="url(#mask1_30_6648)">
<path d="M203.975 93.4326C203.433 93.7159 202.883 93.7598 202.324 93.5643C201.764 93.3703 201.339 93.0078 201.05 92.4767L197.8 86.1041C197.511 85.573 197.466 85.0335 197.666 84.4854C197.864 83.9359 198.233 83.5196 198.775 83.2364C199.317 82.9531 199.867 82.9092 200.426 83.1047C200.987 83.2987 201.411 83.6612 201.7 84.1923L204.95 90.5649C205.239 91.096 205.285 91.6355 205.087 92.1836C204.887 92.733 204.517 93.1494 203.975 93.4326ZM216.975 93.4326C216.433 93.7159 215.883 93.7598 215.324 93.5643C214.764 93.3703 214.339 93.0078 214.05 92.4767L210.8 86.1041C210.511 85.573 210.466 85.0335 210.666 84.4854C210.864 83.9359 211.233 83.5196 211.775 83.2364C212.317 82.9531 212.867 82.9092 213.426 83.1047C213.987 83.2987 214.411 83.6612 214.7 84.1923L217.95 90.5649C218.239 91.096 218.285 91.6355 218.087 92.1836C217.887 92.733 217.517 93.1494 216.975 93.4326ZM190.975 93.4326C190.433 93.7159 189.883 93.7598 189.324 93.5643C188.764 93.3703 188.339 93.0078 188.05 92.4767L184.8 86.1041C184.511 85.573 184.466 85.0335 184.666 84.4854C184.864 83.9359 185.233 83.5196 185.775 83.2364C186.317 82.9531 186.867 82.9092 187.426 83.1047C187.987 83.2987 188.411 83.6612 188.7 84.1923L191.95 90.5649C192.239 91.096 192.285 91.6355 192.087 92.1836C191.887 92.733 191.517 93.1494 190.975 93.4326ZM190 80.8997C186.714 80.8997 183.907 79.7576 181.578 77.4734C179.248 75.1905 178.083 72.4382 178.083 69.2165C178.083 66.278 179.077 63.7112 181.063 61.5162C183.049 59.3212 185.504 58.029 188.429 57.6395C189.585 55.6215 191.165 54.0368 193.17 52.8855C195.173 51.7356 197.367 51.1606 199.75 51.1606C203 51.1606 205.825 52.1789 208.226 54.2153C210.628 56.2503 212.082 58.7901 212.588 61.8349C215.079 62.0473 217.174 63.0563 218.871 64.8619C220.568 66.6675 221.417 68.8271 221.417 71.3407C221.417 73.996 220.469 76.2533 218.574 78.1127C216.678 79.9707 214.375 80.8997 211.667 80.8997H190Z" fill="#6B7EFD"/>
</g>
</svg>
