<svg width="583" height="486" viewBox="0 0 583 486" fill="none" xmlns="http://www.w3.org/2000/svg">
<g clip-path="url(#clip0_30_6440)">
<path d="M450.78 370.348L417.136 481.657L420.936 481.112L462.018 369.62L450.78 370.348Z" fill="#C79516"/>
<path d="M478.454 370.348L444.81 481.657L448.61 481.112L489.692 369.62L478.454 370.348Z" fill="#FFCE1A"/>
<path d="M528.916 370.893L552.794 486L547.364 485.455L516.979 370.348L528.916 370.893Z" fill="#C79516"/>
<path d="M554.964 369.807L578.838 484.914L573.412 484.369L543.023 369.262L554.964 369.807Z" fill="#FFCE1A"/>
<path d="M573.514 256.88C559.488 242.87 531.989 245.033 518.268 258.393C495.902 280.166 472.329 369.079 472.329 369.079L562.288 368.453C567.974 353.682 573.445 338.127 576.452 322.612C580.122 303.681 588.796 279.028 577.082 261.256C576.026 259.654 574.831 258.198 573.514 256.884V256.88Z" fill="#6B7EFD"/>
<path d="M563.207 257.421C549.181 243.411 521.682 245.574 507.961 258.934C485.595 280.708 462.022 369.62 462.022 369.62L551.981 368.994C557.667 354.223 563.138 338.668 566.145 323.153C569.815 304.222 578.489 279.569 566.775 261.797C565.719 260.195 564.524 258.739 563.207 257.425V257.421Z" fill="#2B3FCC"/>
<path d="M562.443 361.352H417.087C416.665 361.352 416.323 361.694 416.323 362.117V370.267C416.323 370.689 416.665 371.031 417.087 371.031H562.443C562.865 371.031 563.207 370.689 563.207 370.267V362.117C563.207 361.694 562.865 361.352 562.443 361.352Z" fill="#6B7EFD"/>
<path d="M391.905 298.951H387.836V483.828H391.905V298.951Z" fill="#C79516"/>
<path d="M412.523 298.41H408.454V483.287H412.523V298.41Z" fill="#FFCE1A"/>
<path d="M277.409 297.324H273.341V482.201H277.409V297.324Z" fill="#C79516"/>
<path d="M302.913 298.41H298.844V483.287H302.913V298.41Z" fill="#FFCE1A"/>
<path d="M136.5 312.705L134.041 317.955C134.041 317.955 132.399 321.465 131.456 324.092C130.513 326.719 125.469 325.426 126.583 328.533C127.696 331.64 131.553 336.85 137.877 334.735C141.613 333.486 143.608 328.94 142.925 325.312C142.295 321.953 142.844 318.48 144.376 315.422L136.496 312.705H136.5Z" fill="#C79516"/>
<path d="M63.5047 120.345L63.5901 111.976C63.5901 111.976 66.5286 98.4738 62.639 97.8597C58.7495 97.2456 52.8075 95.4644 49.6495 101.739C46.4916 108.015 51.5923 108.295 51.9215 109.788C52.2507 111.28 53.8723 120.817 53.8723 120.817C53.8723 120.817 60.2736 122.488 63.5047 120.341V120.345Z" fill="#B7870E"/>
<path d="M47.0403 448.488C47.0403 448.488 50.7103 459.68 50.0113 466.329C58.7048 465.422 62.3464 462.246 62.3464 462.246C62.3464 462.246 59.8266 449.126 59.1438 446.178C59.1438 446.178 51.8199 443.376 47.0403 448.484V448.488Z" fill="#C79516"/>
<path d="M64.1835 472.006C46.9793 477.488 30.9334 471.786 30.9334 471.786C30.466 470.729 30.1815 469.749 30.0637 468.87C30.0311 468.631 30.0027 468.378 29.9905 468.155C29.7385 463.807 33.3354 461.794 36.5828 461.603C37.0502 461.575 37.4851 461.542 37.8956 461.538C39.0498 461.469 40.0537 461.416 41.0657 461.286C41.2974 461.261 41.5291 461.237 41.7485 461.188C42.5289 461.078 43.3133 460.904 44.2074 460.655C44.4147 460.594 44.6261 460.533 44.8618 460.46C45.5446 460.237 46.2884 459.972 47.1256 459.647C47.2272 459.606 47.341 459.557 47.4467 459.517C47.5605 459.468 47.6621 459.427 47.7678 459.387C52.4214 457.577 54.8315 457.715 51.0558 461.274C55.177 463.47 62.6472 461.383 62.6472 461.383C63.8787 461.111 64.1876 465.044 64.2241 468.195C64.2688 470.273 64.1875 472.002 64.1875 472.002L64.1835 472.006Z" fill="#192CB1"/>
<path d="M38.745 469.098C35.6236 469.159 32.4006 468.793 30.0637 468.871C30.0311 468.631 30.0027 468.378 29.9905 468.155C29.7385 463.807 33.3354 461.794 36.5828 461.603C37.0502 461.575 37.4851 461.542 37.8956 461.538C38.558 463.36 39.5335 467.024 38.745 469.098Z" fill="#EFF1FF"/>
<path d="M64.1835 472.006C46.9793 477.488 30.9334 471.786 30.9334 471.786C30.336 470.428 30.0474 469.216 29.9905 468.155C45.7437 470.066 60.424 468.631 64.2201 468.2C64.2648 470.278 64.1835 472.006 64.1835 472.006Z" fill="#192CB1"/>
<path d="M48.5197 464.076C48.414 464.096 48.3042 464.076 48.2189 464.007C48.1661 463.962 48.1295 463.897 48.101 463.824L47.1215 459.647C47.2231 459.606 47.3369 459.558 47.4426 459.517C47.5564 459.468 47.658 459.427 47.7637 459.387C47.7637 459.407 47.7759 459.415 47.78 459.436L48.7838 463.665C48.8326 463.848 48.7147 464.035 48.5237 464.072L48.5197 464.076Z" fill="#EFF1FF"/>
<path d="M45.5974 464.938C45.4836 464.971 45.382 464.938 45.2967 464.869C45.2438 464.824 45.2072 464.759 45.1788 464.686L44.2074 460.656C44.4147 460.595 44.6261 460.534 44.8618 460.46L44.874 460.469L45.8494 464.515C45.8982 464.698 45.7803 464.885 45.5974 464.93V464.938Z" fill="#EFF1FF"/>
<path d="M42.7361 465.743C42.6223 465.776 42.5004 465.747 42.4151 465.678C42.3622 465.633 42.3175 465.58 42.3013 465.515L41.0698 461.347C41.0698 461.347 41.0698 461.306 41.0657 461.29C41.2974 461.266 41.5291 461.241 41.7485 461.192L42.9637 465.312C43.0125 465.491 42.9028 465.69 42.7321 465.747L42.7361 465.743Z" fill="#EFF1FF"/>
<path d="M63.9437 338.562C58.8023 362.95 50.9664 384.309 50.9664 384.309C55.0022 393.293 62.4765 448.154 62.4765 448.154L61.7165 448.353C56.949 451.33 51.3972 452.807 45.7803 452.591L45.4592 452.579C45.4592 452.579 22.6219 399.161 24.1745 370.966C25.1255 311.115 40.1553 286.982 40.1553 286.982L68.2356 298.138C68.8534 310.448 66.809 324.97 63.9478 338.566L63.9437 338.562Z" fill="#192CB1"/>
<path d="M127.932 384.448C127.932 384.448 139.702 384.521 145.783 387.299C147.685 378.762 145.835 374.297 145.835 374.297C145.835 374.297 132.606 372.52 129.594 372.231C129.594 372.231 124.616 378.291 127.932 384.448Z" fill="#C79516"/>
<path d="M148.749 370.857C156.768 387.042 153.562 403.777 153.562 403.777C152.586 404.4 151.664 404.831 150.814 405.079C150.582 405.148 150.335 405.213 150.119 405.258C145.864 406.165 143.328 402.911 142.649 399.731C142.551 399.275 142.45 398.848 142.389 398.442C142.145 397.307 141.942 396.327 141.661 395.343C141.604 395.115 141.543 394.891 141.462 394.68C141.239 393.924 140.942 393.175 140.564 392.329C140.475 392.13 140.381 391.935 140.275 391.711C139.95 391.073 139.58 390.373 139.129 389.596C139.072 389.499 139.007 389.397 138.954 389.3C138.889 389.198 138.833 389.1 138.776 389.003C136.284 384.672 136.057 382.268 140.141 385.465C141.686 381.056 138.495 373.984 138.495 373.984C138.04 372.805 141.877 371.906 144.986 371.393C147.034 371.036 148.754 370.853 148.754 370.853L148.749 370.857Z" fill="#192CB1"/>
<path d="M149.729 396.461C150.261 399.54 150.387 402.781 150.818 405.083C150.587 405.152 150.339 405.217 150.123 405.262C145.868 406.169 143.332 402.915 142.653 399.735C142.555 399.279 142.454 398.852 142.393 398.446C144.092 397.514 147.563 395.997 149.733 396.461H149.729Z" fill="#EFF1FF"/>
<path d="M148.749 370.857C156.768 387.042 153.562 403.777 153.562 403.777C152.31 404.575 151.156 405.042 150.119 405.258C149.623 389.389 145.986 375.086 144.982 371.393C147.03 371.036 148.749 370.853 148.749 370.853V370.857Z" fill="#192CB1"/>
<path d="M50.9664 384.309C55.0022 393.293 62.4765 448.154 62.4765 448.154L61.7165 448.354C58.8511 436.491 48.3124 393.671 43.6384 384.236C43.6384 384.236 58.778 338.293 60.5053 325.471C61.5905 317.459 63.4072 325.43 63.9478 338.566C58.8064 362.955 50.9704 384.313 50.9704 384.313L50.9664 384.309Z" fill="#10219C"/>
<path d="M143.807 388.73C143.828 388.836 143.807 388.946 143.738 389.031C143.693 389.084 143.628 389.121 143.555 389.145L139.373 390.089C139.332 389.983 139.284 389.873 139.247 389.767C139.198 389.654 139.158 389.552 139.121 389.446C139.141 389.446 139.15 389.434 139.17 389.434L143.405 388.466C143.588 388.421 143.775 388.539 143.811 388.73H143.807Z" fill="#EFF1FF"/>
<path d="M144.758 390.837C144.795 390.951 144.771 391.052 144.705 391.142C144.665 391.199 144.604 391.235 144.527 391.268L140.56 392.455C140.487 392.248 140.418 392.045 140.332 391.813L140.34 391.801L144.327 390.613C144.506 390.556 144.697 390.662 144.758 390.841V390.837Z" fill="#EFF1FF"/>
<path d="M145.811 393.02C145.86 393.13 145.852 393.252 145.795 393.346C145.758 393.407 145.713 393.456 145.648 393.484L141.718 395.335C141.718 395.335 141.682 395.343 141.661 395.351C141.604 395.123 141.543 394.899 141.462 394.688L145.348 392.862C145.518 392.789 145.73 392.862 145.811 393.025V393.02Z" fill="#EFF1FF"/>
<path d="M132.086 387.433C132.086 387.433 97.6124 395.119 78.8069 387.689C78.8069 387.689 78.7974 387.685 78.7784 387.677C73.6127 385.627 69.6297 382.439 67.8779 377.632C47.2597 331.791 57.5465 293.888 57.5465 293.888L82.4932 302.083L88.3173 303.998C91.8858 329.05 95.3567 356.871 96.2427 368.453C108.147 368.892 131.602 370.877 132.236 370.706C133.903 375.977 133.907 381.63 132.248 386.904L132.082 387.437L132.086 387.433Z" fill="#192CB1"/>
<path d="M133.386 379.946L96.7995 378.144C92.0931 377.912 88.11 374.7 86.8867 370.145L67.6056 298.309L68.8493 297.975L88.1304 369.811C89.2074 373.825 92.7149 376.656 96.8605 376.859L133.447 378.661L133.386 379.946Z" fill="#10219C"/>
<path d="M96.2468 368.449C95.2023 368.437 94.3162 367.697 94.1252 366.672C92.5564 358.156 85.6999 320.859 82.4932 302.079L88.3173 303.994C91.8858 329.046 95.3567 356.867 96.2427 368.449H96.2468Z" fill="#10219C"/>
<path d="M109.72 248.141H109.708C109.452 248.783 109.171 249.43 108.862 250.085C108.793 250.292 108.692 250.495 108.594 250.703C108.342 251.264 108.086 251.842 107.846 252.403C107.651 252.854 107.452 253.306 107.269 253.745C104.481 260.13 102.307 265.819 100.535 270.931C98.7341 276.157 97.3523 280.781 96.1858 284.978C94.2715 291.908 92.9506 297.634 91.2883 302.831C90.9307 303.998 90.6177 305.247 90.3861 306.288V306.3C90.0975 307.618 89.9349 308.606 89.9349 308.606C89.9349 308.606 44.0164 297.845 34.006 289.297C34.006 289.297 43.488 249.458 59.2819 222.857C73.4257 199.018 88.3376 205.622 88.3376 205.622L106.639 212.577C106.639 212.577 111.016 213.597 113.41 218.99C113.614 219.445 113.801 219.929 113.971 220.454C115.69 225.688 115.593 234.244 109.716 248.137L109.72 248.141Z" fill="#6B7EFD"/>
<path d="M86.2364 207.045C85.6918 209.132 85.0415 210.998 84.2693 212.625C76.6893 229.144 59.473 223.74 59.473 223.74C60.9524 210.791 52.4539 193.052 50.7997 176.069C49.1293 159.069 51.3891 118.047 51.3891 118.047L66.7359 118.202C71.2269 149.899 71.0075 171.676 71.0075 171.676C75.4904 182.73 86.2445 207.045 86.2445 207.045H86.2364Z" fill="#6B7EFD"/>
<path d="M144.933 318.073L143.535 317.577L133.504 314.047C133.504 314.047 136.3 287.71 140.332 273.989C140.332 273.989 140.304 273.948 140.223 273.863C138.507 271.931 118.218 249.462 107.485 254.127H107.472C107.472 254.127 107.403 253.988 107.269 253.74C107.013 253.244 106.554 252.289 106.005 251.003C103.091 244.025 98.1326 227.253 113.975 220.454C113.894 220.482 114.044 220.425 113.975 220.454C113.975 220.454 114.634 220.641 115.41 221.198C120.202 224.537 138.154 237.681 150.847 255.314C152.623 257.754 154.289 260.288 155.801 262.907C163.47 274.229 144.925 318.073 144.925 318.073H144.933Z" fill="#6B7EFD"/>
<path d="M101.307 224.947L88.5896 218.217L101.628 196.138L114.309 203.633L101.307 224.947Z" fill="#B7870E"/>
<path d="M100.539 270.931C98.7382 276.157 97.3563 280.781 96.1899 284.978C80.3188 279.74 67.0041 270.288 69.5443 253.289C72.243 235.249 90.1788 224.077 90.1788 224.077L94.2837 227.656C80.7943 242.463 79.0507 250.247 80.4935 257.226C81.8713 263.899 93.3449 268.601 100.543 270.927L100.539 270.931Z" fill="#2B3FCC"/>
<path d="M92.219 218.453L96.4744 222.426L94.2797 226.964L91.6094 227.623L87.9515 224.061L88.4921 221.547L92.219 218.453Z" fill="#192CB1"/>
<path d="M108.541 213.398L94.3488 220.693L93.1417 228.843C93.1417 228.843 109.712 221.995 110.114 220.433C110.362 219.478 110.594 217.525 110.74 216.147C110.838 215.232 110.366 214.353 109.549 213.926L108.537 213.394L108.541 213.398Z" fill="#EFF1FF"/>
<path d="M94.3528 220.694L94.8243 207.656L93.6416 207.139C92.9059 206.818 92.0524 206.981 91.4915 207.558C90.7884 208.286 89.8577 209.51 89.1058 211.43C87.6955 215.029 84.5944 224.025 84.5944 224.025L94.3488 220.69L94.3528 220.694Z" fill="#EFF1FF"/>
<path d="M86.2608 204.878C83.9604 205.069 82.0339 204.931 80.2009 205.545C76.0228 198.387 68.6583 182.51 65.9068 170.993C66.0002 161.623 64.9069 127.291 64.598 118.182L66.7277 118.202C71.2188 149.899 70.9993 171.676 70.9993 171.676C75.4823 182.73 86.2567 204.878 86.2567 204.878H86.2608Z" fill="#2B3FCC"/>
<path d="M140.223 273.867C138.507 271.935 118.218 249.466 107.485 254.131H107.472C107.472 254.131 107.403 253.993 107.269 253.745C96.9621 277.377 94.9381 291.407 91.2843 302.831C90.9266 303.998 90.6137 305.247 90.382 306.288C90.2194 304.649 90.1097 303.437 90.0975 303.356C88.6221 288.89 101.465 257.88 104.449 252.585C104.827 251.914 105.355 251.398 106.005 251.003C106.794 250.515 107.773 250.223 108.862 250.084C109.122 250.048 109.387 250.019 109.647 250.011H109.659C114.666 249.706 119.3 252.642 123.441 255.038C127.558 257.421 139.052 272.354 140.218 273.867H140.223Z" fill="#2B3FCC"/>
<path d="M144.933 318.073L143.535 317.577C145.669 310.774 153.866 283.392 153.208 269.459C152.936 263.647 151.952 258.946 150.847 255.314C152.623 257.755 154.289 260.288 155.801 262.907C163.47 274.229 144.925 318.073 144.925 318.073H144.933Z" fill="#2B3FCC"/>
<path d="M87.9515 224.061C87.9515 224.061 71.9382 235.253 69.5199 253.289C67.1017 271.325 80.587 280.846 95.8363 285.856L106.184 282.558L102.335 272.541C102.335 272.541 81.0707 267.035 79.2824 257.222C78.0062 250.235 79.5628 242.459 91.6175 227.628L87.9597 224.065L87.9515 224.061Z" fill="#192CB1"/>
<path d="M133.029 383.769L132.086 387.433C132.086 387.433 97.6124 395.119 78.8068 387.689C98.3724 389.58 124.831 385.542 133.029 383.769Z" fill="#10219C"/>
<path d="M130.104 200.717C137.651 192.661 137.887 180.615 130.633 173.81C123.378 167.005 111.379 168.019 103.832 176.074C96.2856 184.13 96.0488 196.177 103.303 202.981C110.558 209.786 122.557 208.772 130.104 200.717Z" fill="#C79516"/>
<path d="M111.431 209.701C111.431 209.701 122.295 210.909 131.834 202.515C141.373 194.121 137.634 192.161 137.634 192.161C137.634 192.161 143.734 181.778 138.889 174.446C134.045 167.113 120.69 154.274 116.068 143.432C111.443 132.59 100.055 158.142 109.671 168.716C119.291 179.289 121.372 180.932 121.372 180.932L112.077 176.861C112.077 176.861 119.21 183.242 123.396 185.621C127.583 188 123.526 189.253 119.527 192.628C115.528 196 113.947 199.575 113.947 199.575C113.947 199.575 123.498 195.63 125.567 198.188C127.631 200.746 118.84 202.726 115.451 205.114C110.927 208.302 110.2 210.64 110.2 210.64L111.427 209.701H111.431Z" fill="#0B0D13"/>
<path d="M126.997 203.295C129.676 200.435 129.986 196.372 127.69 194.218C125.394 192.064 121.362 192.637 118.683 195.496C116.004 198.355 115.693 202.419 117.989 204.573C120.285 206.726 124.318 206.154 126.997 203.295Z" fill="#B7870E"/>
<path d="M91.2547 91.3125C112.128 70.4263 112.128 36.563 91.2547 15.6767C70.3813 -5.20955 36.5389 -5.20954 15.6655 15.6767C-5.20793 36.563 -5.20793 70.4263 15.6655 91.3125C36.5389 112.199 70.3813 112.199 91.2547 91.3125Z" fill="#FFCE1A"/>
<path d="M69.2923 66.6588C68.1787 69.1355 66.2522 71.2136 63.5169 72.8892C62.5009 73.5114 62.0375 74.7436 62.3789 75.8864L62.9561 77.8222C63.3747 79.2212 62.5821 80.6893 61.184 81.1082L60.0623 81.4457C58.6642 81.8646 57.1969 81.0716 56.7783 79.6726L56.3272 78.1679C55.9533 76.9153 54.7096 76.1589 53.4171 76.346C51.5557 76.6144 49.7186 76.712 47.9059 76.6306C46.2843 76.5574 44.8008 76.3622 43.4596 76.045C42.2078 75.7481 41.3787 74.5525 41.4843 73.2674L41.8379 69.0176C41.968 67.4519 43.4271 66.3335 44.9634 66.6466C46.1177 66.8825 47.3247 67.0289 48.5887 67.0858C50.9379 67.1916 53.1408 66.9354 55.2014 66.3213C59.1153 65.15 60.737 63.4542 60.0704 61.2296C59.7209 60.0584 58.904 59.3589 57.6196 59.123C56.3353 58.8912 54.3641 58.8343 51.7061 58.9482C48.796 59.0946 46.3168 59.062 44.2725 58.8424C42.224 58.6269 40.3016 57.8745 38.493 56.5853C36.6885 55.2962 35.3594 53.2302 34.5059 50.3794C33.5021 47.0243 33.7053 43.8237 35.1156 40.7898C36.2902 38.2644 38.3061 36.1822 41.1714 34.5473C42.2322 33.9413 42.7321 32.6806 42.3826 31.5094L41.842 29.6997C41.4234 28.3007 42.2159 26.8326 43.614 26.4137L44.7358 26.0802C46.1339 25.6613 47.6011 26.4543 48.0197 27.8533L48.4953 29.4475C48.857 30.6635 50.0356 31.4647 51.2956 31.3142C52.584 31.1637 53.8642 31.1027 55.1404 31.1312C56.2296 31.1556 57.2701 31.2532 58.2699 31.4199C59.6152 31.6436 60.5825 32.827 60.5012 34.1894L60.2452 38.4718C60.1517 40.0172 58.7536 41.1559 57.2254 40.9241C54.2869 40.4726 51.5882 40.615 49.1334 41.3511C47.1093 41.957 45.7356 42.7419 45.0122 43.7017C44.2887 44.6614 44.0936 45.6904 44.4188 46.7803C44.7439 47.8742 45.5405 48.529 46.8005 48.7445C48.0604 48.9641 49.9991 49.0007 52.6083 48.8543C55.5509 48.6957 58.0383 48.7283 60.0663 48.9519C62.0944 49.1756 64.0168 49.9158 65.8336 51.1805C67.6503 52.4453 68.9834 54.5031 69.8369 57.3499C70.8042 60.5911 70.6213 63.6982 69.2842 66.667L69.2923 66.6588Z" fill="#C79516"/>
<path d="M401.277 485.882C421.845 485.882 438.518 469.198 438.518 448.618C438.518 428.037 421.845 411.354 401.277 411.354C380.709 411.354 364.036 428.037 364.036 448.618C364.036 469.198 380.709 485.882 401.277 485.882Z" fill="#FFCE1A"/>
<path d="M412.307 457.788C411.531 459.513 410.19 460.961 408.284 462.132C407.577 462.567 407.251 463.425 407.491 464.218L407.894 465.568C408.186 466.54 407.633 467.565 406.658 467.858L405.878 468.09C404.906 468.383 403.882 467.829 403.589 466.853L403.276 465.804C403.016 464.93 402.151 464.401 401.248 464.535C399.952 464.722 398.672 464.792 397.408 464.735C396.278 464.686 395.245 464.548 394.311 464.328C393.437 464.12 392.86 463.287 392.933 462.392L393.177 459.431C393.266 458.342 394.282 457.561 395.355 457.78C396.16 457.943 397.001 458.045 397.879 458.085C399.517 458.159 401.053 457.98 402.488 457.553C405.215 456.735 406.345 455.556 405.882 454.002C405.638 453.185 405.069 452.697 404.175 452.534C403.281 452.371 401.907 452.331 400.053 452.412C398.025 452.514 396.298 452.489 394.876 452.339C393.449 452.188 392.108 451.664 390.848 450.765C389.588 449.866 388.665 448.427 388.072 446.442C387.373 444.104 387.515 441.875 388.499 439.76C389.316 437.999 390.722 436.552 392.717 435.413C393.457 434.99 393.807 434.111 393.563 433.294L393.185 432.033C392.892 431.061 393.445 430.037 394.42 429.744L395.201 429.512C396.172 429.219 397.196 429.772 397.489 430.748L397.822 431.859C398.074 432.704 398.895 433.262 399.773 433.16C400.671 433.054 401.565 433.013 402.451 433.034C403.207 433.05 403.935 433.119 404.634 433.237C405.569 433.396 406.247 434.217 406.191 435.165L406.012 438.146C405.947 439.223 404.971 440.016 403.906 439.854C401.858 439.541 399.98 439.638 398.269 440.151C396.859 440.574 395.9 441.119 395.4 441.786C394.896 442.457 394.758 443.172 394.985 443.933C395.213 444.693 395.766 445.153 396.644 445.303C397.521 445.454 398.871 445.482 400.692 445.381C402.744 445.271 404.475 445.291 405.89 445.446C407.304 445.6 408.645 446.117 409.909 446.999C411.173 447.882 412.104 449.313 412.698 451.298C413.372 453.555 413.242 455.718 412.311 457.793L412.307 457.788Z" fill="#C79516"/>
<path d="M530.44 347.318C544.983 332.765 544.983 309.171 530.44 294.619C515.896 280.066 492.316 280.066 477.773 294.619C463.229 309.171 463.229 332.765 477.773 347.318C492.316 361.871 515.896 361.871 530.44 347.318Z" fill="#FFCE1A"/>
<path d="M515.134 330.14C514.358 331.864 513.017 333.312 511.111 334.483C510.403 334.918 510.078 335.776 510.318 336.569L510.72 337.919C511.013 338.891 510.46 339.916 509.485 340.209L508.705 340.441C507.733 340.734 506.709 340.181 506.416 339.204L506.103 338.155C505.843 337.281 504.978 336.752 504.075 336.886C502.779 337.073 501.499 337.143 500.235 337.086C499.105 337.037 498.072 336.899 497.138 336.679C496.264 336.472 495.687 335.638 495.76 334.743L496.004 331.783C496.093 330.693 497.109 329.912 498.182 330.131C498.987 330.294 499.828 330.396 500.706 330.436C502.344 330.51 503.88 330.331 505.315 329.904C508.042 329.086 509.172 327.907 508.709 326.353C508.465 325.536 507.896 325.048 507.002 324.885C506.107 324.723 504.734 324.682 502.88 324.763C500.852 324.865 499.125 324.841 497.702 324.69C496.276 324.54 494.935 324.015 493.675 323.116C492.415 322.217 491.492 320.778 490.899 318.793C490.2 316.455 490.342 314.226 491.326 312.111C492.143 310.35 493.549 308.903 495.544 307.764C496.284 307.341 496.634 306.463 496.39 305.645L496.012 304.384C495.719 303.412 496.272 302.388 497.247 302.095L498.028 301.863C498.999 301.57 500.023 302.123 500.316 303.099L500.649 304.21C500.901 305.055 501.722 305.613 502.6 305.511C503.498 305.405 504.392 305.365 505.278 305.385C506.034 305.401 506.762 305.47 507.461 305.588C508.396 305.747 509.074 306.568 509.018 307.516L508.839 310.497C508.774 311.575 507.798 312.368 506.733 312.205C504.685 311.892 502.807 311.989 501.096 312.502C499.686 312.925 498.727 313.47 498.227 314.137C497.723 314.808 497.585 315.523 497.812 316.284C498.04 317.044 498.593 317.504 499.47 317.654C500.348 317.805 501.698 317.833 503.518 317.732C505.571 317.622 507.302 317.642 508.717 317.797C510.131 317.951 511.472 318.468 512.736 319.35C514 320.233 514.931 321.664 515.524 323.649C516.199 325.906 516.069 328.07 515.138 330.144L515.134 330.14Z" fill="#C79516"/>
<path d="M180.31 469.773C194.854 455.221 194.854 431.626 180.31 417.074C165.767 402.521 142.187 402.521 127.643 417.074C113.1 431.626 113.1 455.221 127.643 469.773C142.187 484.326 165.767 484.326 180.31 469.773Z" fill="#FFCE1A"/>
<path d="M165.007 452.595C164.23 454.319 162.889 455.767 160.983 456.938C160.276 457.374 159.951 458.232 160.19 459.025L160.593 460.375C160.885 461.347 160.333 462.372 159.357 462.665L158.577 462.896C157.606 463.189 156.581 462.636 156.289 461.66L155.976 460.611C155.716 459.736 154.85 459.208 153.948 459.342C152.651 459.529 151.371 459.598 150.107 459.541C148.977 459.492 147.945 459.354 147.01 459.135C146.136 458.927 145.559 458.093 145.632 457.199L145.876 454.238C145.965 453.148 146.981 452.367 148.054 452.587C148.859 452.75 149.701 452.851 150.578 452.892C152.216 452.965 153.753 452.786 155.187 452.359C157.914 451.542 159.044 450.362 158.581 448.809C158.337 447.991 157.768 447.503 156.874 447.341C155.98 447.178 154.606 447.137 152.753 447.219C150.725 447.32 148.997 447.296 147.575 447.146C146.148 446.995 144.807 446.471 143.547 445.572C142.287 444.673 141.365 443.233 140.771 441.249C140.072 438.91 140.214 436.682 141.198 434.567C142.015 432.806 143.421 431.358 145.417 430.22C146.156 429.797 146.506 428.918 146.262 428.101L145.884 426.84C145.592 425.868 146.144 424.843 147.12 424.55L147.9 424.319C148.871 424.026 149.896 424.579 150.188 425.555L150.522 426.665C150.773 427.511 151.594 428.068 152.472 427.967C153.371 427.861 154.265 427.82 155.151 427.84C155.907 427.857 156.634 427.926 157.333 428.044C158.268 428.202 158.947 429.024 158.89 429.971L158.711 432.952C158.646 434.03 157.671 434.823 156.606 434.661C154.557 434.347 152.68 434.445 150.969 434.957C149.558 435.38 148.599 435.925 148.099 436.592C147.595 437.263 147.457 437.979 147.685 438.739C147.912 439.5 148.465 439.96 149.343 440.11C150.221 440.26 151.57 440.289 153.391 440.187C155.443 440.077 157.175 440.098 158.589 440.252C160.004 440.407 161.345 440.923 162.609 441.806C163.873 442.688 164.803 444.12 165.397 446.104C166.072 448.362 165.941 450.525 165.011 452.599L165.007 452.595Z" fill="#C79516"/>
<path d="M252.145 250.796C252.145 250.796 261.599 286.539 237.754 331.433C213.908 376.326 222.691 432.68 222.691 432.68L222.301 439.297C222.301 439.297 218.176 390.564 220.956 363.939C223.736 337.317 208.255 318.757 222.805 297.617C237.355 276.478 252.149 250.792 252.149 250.792L252.145 250.796Z" fill="#83ECAD"/>
<path d="M222.598 438.443C222.598 438.443 225.573 351.864 257.335 330.595C289.098 309.326 288.769 293.77 288.769 293.77C288.769 293.77 299.531 326.886 288.659 344.682C277.787 362.483 245.183 364.154 238.644 377.298C232.104 390.442 222.602 438.443 222.602 438.443H222.598Z" fill="#3CCD87"/>
<path d="M221.484 436.121C221.484 436.121 220.866 372.983 208.426 358.965C195.985 344.947 166.856 315.804 162.385 299.952L157.914 284.099C157.914 284.099 144.645 315.336 165.596 344.695C186.547 374.053 200.468 367.363 208.885 388.458C217.302 409.556 221.488 436.116 221.488 436.116L221.484 436.121Z" fill="#6BDB9E"/>
<path d="M223.35 434.652C223.35 434.652 229.406 404.741 242.208 395.725C255.011 386.709 263.066 372.556 263.066 372.556C263.066 372.556 269.004 390.275 261.05 401.955C253.096 413.635 235.474 410.536 232.051 415.896C228.629 421.256 223.354 434.652 223.354 434.652H223.35Z" fill="#83ECAD"/>
<path d="M223.151 436.32C223.151 436.32 214.254 401.736 197.635 393.586C181.012 385.432 162.613 369.706 162.613 369.706C162.613 369.706 166.966 404.046 187.872 410.422C208.783 416.799 215.095 418.052 223.151 436.32Z" fill="#2EAA6F"/>
<path d="M196.399 420.561H250.117V477.639C250.117 479.977 248.219 481.876 245.882 481.876H200.634C198.297 481.876 196.399 479.977 196.399 477.639V420.561Z" fill="#192CB1"/>
<path d="M411.243 131.313C411.243 131.313 417.583 155.283 401.59 185.389C385.597 215.496 391.49 253.285 391.49 253.285L391.226 257.722C391.226 257.722 388.458 225.041 390.324 207.187C392.189 189.334 381.809 176.886 391.563 162.713C401.322 148.536 411.243 131.313 411.243 131.313Z" fill="#83ECAD"/>
<path d="M391.425 257.148C391.425 257.148 393.421 199.091 414.722 184.824C436.023 170.562 435.799 160.126 435.799 160.126C435.799 160.126 443.013 182.335 435.726 194.267C428.439 206.199 406.569 207.326 402.183 216.139C397.798 224.951 391.425 257.144 391.425 257.144V257.148Z" fill="#3CCD87"/>
<path d="M390.681 255.591C390.681 255.591 390.267 213.251 381.923 203.849C373.579 194.446 354.046 174.905 351.046 164.275L348.047 153.644C348.047 153.644 339.146 174.592 353.196 194.28C367.246 213.967 376.582 209.481 382.223 223.63C387.869 237.778 390.677 255.591 390.677 255.591H390.681Z" fill="#6BDB9E"/>
<path d="M391.929 254.607C391.929 254.607 395.989 234.549 404.577 228.502C413.165 222.458 418.562 212.962 418.562 212.962C418.562 212.962 422.545 224.846 417.209 232.678C411.872 240.511 400.058 238.433 397.761 242.028C395.465 245.623 391.929 254.607 391.929 254.607Z" fill="#83ECAD"/>
<path d="M391.795 255.725C391.795 255.725 385.828 232.532 374.684 227.066C363.536 221.6 351.197 211.051 351.197 211.051C351.197 211.051 354.115 234.077 368.137 238.355C382.158 242.634 386.389 243.471 391.795 255.725Z" fill="#2EAA6F"/>
<path d="M373.859 245.155H409.885V283.432C409.885 285.002 408.613 286.275 407.044 286.275H376.7C375.131 286.275 373.859 285.002 373.859 283.432V245.155Z" fill="#6B7EFD"/>
<path d="M369.787 245.155H405.813V283.432C405.813 285.002 404.541 286.275 402.972 286.275H372.628C371.059 286.275 369.787 285.002 369.787 283.432V245.155Z" fill="#192CB1"/>
<path d="M434.482 287.548H256.25V300.578H434.482V287.548Z" fill="#6B7EFD"/>
<path d="M420.021 287.548H256.25V300.578H420.021V287.548Z" fill="#192CB1"/>
<path d="M299.076 202.69H342.023C344.242 202.69 346.043 204.492 346.043 206.712V287.141H295.056V206.712C295.056 204.492 296.857 202.69 299.076 202.69Z" fill="white"/>
<path d="M298.669 202.69H337.24C339.231 202.69 340.849 204.309 340.849 206.301V287.141H295.056V206.301C295.056 204.309 296.674 202.69 298.665 202.69H298.669Z" fill="#B0BBFF"/>
<path d="M336.695 202.202V205.935C336.695 206 336.695 206.069 336.683 206.134C336.581 207.334 335.586 208.273 334.354 208.273H305.067C303.839 208.273 302.831 207.334 302.734 206.134C302.722 206.069 302.722 206 302.722 205.935V202.202C302.722 202.002 302.746 201.807 302.799 201.62C303.059 200.607 303.973 199.863 305.067 199.863H334.354C335.447 199.863 336.366 200.612 336.618 201.62C336.671 201.807 336.695 202.002 336.695 202.202Z" fill="#192CB1"/>
<g opacity="0.34">
<path d="M336.695 202.202V202.238H302.726V202.202C302.726 202.002 302.75 201.807 302.803 201.62H336.622C336.675 201.807 336.699 202.002 336.699 202.202H336.695Z" fill="white"/>
</g>
<g opacity="0.34">
<path d="M336.691 203.662H302.722V204.28H336.691V203.662Z" fill="white"/>
</g>
<g opacity="0.34">
<path d="M336.695 205.52V205.939C336.695 206.004 336.695 206.073 336.683 206.138H302.734C302.722 206.073 302.722 206.004 302.722 205.939V205.52H336.691H336.695Z" fill="white"/>
</g>
<path d="M338.825 279.723H311.602C311.297 279.723 311.049 279.971 311.049 280.276V286.193C311.049 286.499 311.297 286.747 311.602 286.747H338.825C339.13 286.747 339.378 286.499 339.378 286.193V280.276C339.378 279.971 339.13 279.723 338.825 279.723Z" fill="#FFCE1A"/>
<path d="M320.092 267.026L297.256 281.854C297 282.02 296.927 282.363 297.093 282.619L300.312 287.583C300.478 287.839 300.821 287.912 301.077 287.746L323.913 272.918C324.169 272.752 324.242 272.409 324.075 272.153L320.856 267.189C320.69 266.933 320.348 266.86 320.092 267.026Z" fill="#FFCE1A"/>
<g opacity="0.39">
<path d="M321.466 277.206L302.579 286.747L303.498 286.084L318.231 276.519C319.125 275.937 320.275 276.047 321.047 276.718L321.47 277.206H321.466Z" fill="#192CB1"/>
</g>
<g opacity="0.66">
<path d="M331.749 233.398C335.235 233.398 338.061 228.367 338.061 222.161C338.061 215.956 335.235 210.925 331.749 210.925C328.263 210.925 325.437 215.956 325.437 222.161C325.437 228.367 328.263 233.398 331.749 233.398Z" fill="white"/>
</g>
<g opacity="0.66">
<path d="M331.936 248.779C333.714 248.779 335.155 246.213 335.155 243.049C335.155 239.884 333.714 237.318 331.936 237.318C330.158 237.318 328.717 239.884 328.717 243.049C328.717 246.213 330.158 248.779 331.936 248.779Z" fill="white"/>
</g>
<g opacity="0.66">
<path d="M334.033 256.872C334.033 259.064 333.033 260.841 331.802 260.841C330.57 260.841 329.57 259.064 329.57 256.872C329.57 254.68 330.57 252.903 331.802 252.903C333.033 252.903 334.033 254.68 334.033 256.872Z" fill="white"/>
</g>
<path d="M314.853 222.938H311.053V246.559H314.853V222.938Z" fill="#192CB1"/>
</g>
<defs>
<clipPath id="clip0_30_6440">
<rect width="583" height="486" fill="white"/>
</clipPath>
</defs>
</svg>
